<svg xmlns="http://www.w3.org/2000/svg" viewBox="0 0 64 64"><title>playing card</title><g id="_44" data-name="44"><path d="M57.2568,41.458,52.0027,30.7393l3.8615-11.29a5.8026,5.8026,0,0,0-3.5977-7.3643l-1.8641-.6407A5.7459,5.7459,0,0,0,44.7207,6.6H40.1751l-.1741-.3535a5.788,5.788,0,0,0-7.7588-2.6475l-1.9711.9643L28.19,3.8516A5.7724,5.7724,0,0,0,21.1988,6.6H19.2813a5.8049,5.8049,0,0,0-5.8047,5.792v.3906l-4.082,2.002A5.805,5.805,0,0,0,6.7461,22.543l1.4307,2.92,1.7969-.8809L8.543,21.6631a3.802,3.802,0,0,1,1.7314-5.083l3.2021-1.57V28.9177l-.5675,1.6581L11.4512,27.6,9.6543,28.48l2.3378,4.7745L8.125,44.5537a5.8214,5.8214,0,0,0,3.6143,7.3623l1.846.6282A5.7426,5.7426,0,0,0,19.2813,57.4h4.5339l.176.3574a5.8179,5.8179,0,0,0,5.2139,3.2393,5.7236,5.7236,0,0,0,2.541-.5947l1.9781-.9676,2.0873.7137A5.76,5.76,0,0,0,42.795,57.4h1.9257a5.7992,5.7992,0,0,0,5.793-5.792v-.3907l4.0811-2.0019A5.8082,5.8082,0,0,0,57.2568,41.458Zm-3.2832-22.66-.001.0029-3.2117,9.405-.2473-.5044V13.5967l1.1016.3789A3.8,3.8,0,0,1,53.9736,18.7979ZM33.127,5.3926A3.7884,3.7884,0,0,1,37.8926,6.6H36.2277l-3.2769-1.12Zm-5.5859.3506.1867.064L26.108,6.6H23.666A3.7829,3.7829,0,0,1,27.541,5.7432ZM10.0176,45.2l3.22-9.4009.2386.4875V50.3945l-1.0889-.37A3.8166,3.8166,0,0,1,10.0176,45.2ZM30.8633,58.6074A3.7946,3.7946,0,0,1,26.1006,57.4h1.6737l3.2705,1.1182Zm5.5986-.3506-.1937-.0665,1.615-.79h2.4528A3.7778,3.7778,0,0,1,36.4619,58.2568ZM44.7207,55.4H19.2813a3.7681,3.7681,0,0,1-3.793-3.6387.8934.8934,0,0,0-.0117-.1533V12.3916A3.8029,3.8029,0,0,1,19.2813,8.6H44.7207A3.7712,3.7712,0,0,1,48.502,12.23a.5437.5437,0,0,0,.0063.08c.0026.0222,0,.0444.0044.0665l.001,39.2316A3.7966,3.7966,0,0,1,44.7207,55.4Zm8.9951-7.9814-.001.001-3.2012,1.57V35.093l.5748-1.68L55.46,42.3369A3.8045,3.8045,0,0,1,53.7158,47.4189Z"/><path d="M41.2822,34.2178a6.7744,6.7744,0,0,0-2.01-7.6777l-6.6367-5.4785a1.0013,1.0013,0,0,0-1.2734,0L24.7256,26.54a6.7844,6.7844,0,0,0,1.7285,11.502l1.5576.6436-1.3594,3.0771a1,1,0,0,0,.915,1.4043h8.8633a1,1,0,0,0,.915-1.4043l-1.3594-3.0771,1.5576-.6436A6.8127,6.8127,0,0,0,41.2822,34.2178Zm-1.8652-.7207A4.8109,4.8109,0,0,1,36.78,36.1943l-2.5039,1.0342a1.001,1.001,0,0,0-.5332,1.3281l1.1533,2.61H29.1016l1.1533-2.61a1.001,1.001,0,0,0-.5332-1.3281l-2.5039-1.0342A4.7843,4.7843,0,0,1,25.999,28.083l6-4.9531,6,4.9531A4.776,4.776,0,0,1,39.417,33.4971Z"/><path d="M24.6289,19.9189a1,1,0,0,0,.0771-.95l-.2549-.5752a3.18,3.18,0,0,0,.8066-5.39l-2.5-2.0635a1.0013,1.0013,0,0,0-1.2734,0l-2.501,2.0635a3.1792,3.1792,0,0,0,.8076,5.39l-.2549.5752a1,1,0,0,0,.915,1.4043h3.34A1,1,0,0,0,24.6289,19.9189Zm-1.8877-2.9824a1.001,1.001,0,0,0-.5332,1.3281l.0479.1084h-.27l.0479-.1084a1.001,1.001,0,0,0-.5332-1.3281l-.9424-.39a1.1788,1.1788,0,0,1-.3018-2l1.8643-1.5381,1.8633,1.5381a1.18,1.18,0,0,1-.3,2Z"/><path d="M44.6367,45.9365l.2539-.5762a1,1,0,0,0-.915-1.4033H40.6367a1,1,0,0,0-.915,1.4043l.2549.5752a3.18,3.18,0,0,0-.8076,5.39L41.67,53.39a1.0013,1.0013,0,0,0,1.2734,0l2.5-2.0635a3.18,3.18,0,0,0-.8066-5.39ZM44.17,49.7832l-1.8633,1.5381-1.8643-1.5381a1.1793,1.1793,0,0,1,.3008-2l.9434-.39a1.001,1.001,0,0,0,.5332-1.3281l-.0479-.1084h.27l-.0479.1094a1,1,0,0,0,.5332,1.3271l.9434.39a1.18,1.18,0,0,1,.3,2Z"/></g></svg>