<svg xmlns="http://www.w3.org/2000/svg" viewBox="0 0 64 64"><title>play dice</title><g id="_41" data-name="41"><path d="M60,3.1172H4.2344a1,1,0,0,0-1,1V21.526a.9815.9815,0,0,0-.2344.62v19.707a.9815.9815,0,0,0,.2344.62V59.8828a1,1,0,0,0,1,1H60a1,1,0,0,0,1-1V4.1172A1,1,0,0,0,60,3.1172ZM59,21.1465H42.7363V5.1172H59Zm-53.7656,2H21.0293v17.707H5.2344Zm35.502,6.4473-6.4473-6.4473h6.4473ZM40.3145,32l-8.4316,8.4316L23.4512,32l8.4316-8.4316ZM23.0293,29.5938V23.1465h6.4473Zm0,4.8125,6.4473,6.4473H23.0293Zm17.707,0v6.4473H34.2891Zm2-11.26H58.7656v17.707H42.7363ZM21.0293,5.1172V6.958h2V5.1172h17.707V21.1465H23.0293V9.9575h-2v11.189H5.2344V5.1172ZM5.2344,42.8535H21.0293V58.8828H5.2344ZM23.0293,58.8828V42.8535h17.707V58.8828Zm19.707,0V42.8535H59V58.8828Z"/><path d="M27.4043,32.707l3.7715,3.772a1,1,0,0,0,1.4141,0l3.7715-3.772a1,1,0,0,0,0-1.4141L32.59,27.521a1.0293,1.0293,0,0,0-1.4141,0l-3.7715,3.772A1,1,0,0,0,27.4043,32.707Zm4.4785-3.0649L34.24,32l-2.3574,2.3579L29.5254,32Z"/><polygon points="27.5 18.576 31.738 14.338 35.977 18.576 37.391 17.162 33.152 12.924 37.354 8.723 35.94 7.309 31.738 11.51 27.536 7.309 26.122 8.723 30.324 12.924 26.086 17.162 27.5 18.576"/><polygon points="56.628 27.78 55.214 26.366 51.012 30.568 46.811 26.366 45.396 27.78 49.598 31.982 45.36 36.22 46.774 37.634 51.012 33.396 55.25 37.634 56.664 36.22 52.426 31.982 56.628 27.78"/><polygon points="37.652 46.757 36.238 45.343 32.036 49.544 27.834 45.343 26.42 46.757 30.622 50.958 26.384 55.196 27.798 56.61 32.036 52.372 36.274 56.61 37.688 55.196 33.45 50.958 37.652 46.757"/><polygon points="19 36.22 14.762 31.982 18.964 27.78 17.55 26.366 13.348 30.568 9.146 26.366 7.732 27.78 11.934 31.982 7.696 36.22 9.11 37.634 13.348 33.396 17.586 37.634 19 36.22"/></g></svg>