<svg xmlns="http://www.w3.org/2000/svg" viewBox="0 0 64 64"><title>gambling</title><g id="_33" data-name="33"><path d="M51.0732,40.89H48.078a2.5809,2.5809,0,0,0,.0782-.6055V34.44a2.6086,2.6086,0,0,0-2.6055-2.6055H36.806a15.4173,15.4173,0,1,0-15.1348,0H12.9268A2.6086,2.6086,0,0,0,10.3213,34.44v5.8438A2.6086,2.6086,0,0,0,12.9268,42.89H15.922a2.5809,2.5809,0,0,0-.0782.6055V49.34a2.5809,2.5809,0,0,0,.0782.6055H12.9268a2.6086,2.6086,0,0,0-2.6055,2.6055v5.8438A2.6086,2.6086,0,0,0,12.9268,61h32.624a2.6086,2.6086,0,0,0,2.6055-2.6055V52.5508a2.5809,2.5809,0,0,0-.0782-.6055h2.9952A2.6086,2.6086,0,0,0,53.6787,49.34V43.4951A2.6086,2.6086,0,0,0,51.0732,40.89ZM32.8994,49.9453h-.7988V42.89h5.3213v7.0557Zm-7.3213,0H24.78V42.89h5.32v7.0557Zm-7.1289,0a.606.606,0,0,1-.6055-.6055V43.4951a.606.606,0,0,1,.6055-.6055H22.78v7.0557Zm8.1289-16.11h5.3213V40.89H26.5781ZM15.8719,17.4175a13.3452,13.3452,0,0,1,3.21-7.7426l4.0508,4.0508A7.6629,7.6629,0,0,0,21.6,17.4175H18.792v2H21.6a7.6632,7.6632,0,0,0,1.533,3.6915L19.0821,27.16a13.3454,13.3454,0,0,1-3.21-7.7425h1.045v-2Zm7.6554,1a5.7109,5.7109,0,1,1,5.7109,5.7109A5.7172,5.7172,0,0,1,23.5273,18.4175Zm6.7109,7.6385a7.6626,7.6626,0,0,0,3.692-1.5334l4.0508,4.0511a13.3455,13.3455,0,0,1-7.7428,3.2105Zm5.106-2.9476a7.6632,7.6632,0,0,0,1.5326-3.691h5.7288a13.3445,13.3445,0,0,1-3.21,7.7423Zm1.5326-5.691a7.6626,7.6626,0,0,0-1.5328-3.6912l4.0511-4.0511a13.3447,13.3447,0,0,1,3.21,7.7423ZM33.93,12.3121a7.6629,7.6629,0,0,0-3.6918-1.5332V5.0507a13.3456,13.3456,0,0,1,7.7428,3.21Zm-5.6918-1.5332a7.6626,7.6626,0,0,0-3.6912,1.5328L20.4962,8.2609a13.3442,13.3442,0,0,1,7.7421-3.21ZM24.5468,24.5231a7.6637,7.6637,0,0,0,3.6915,1.533v5.7283a13.3444,13.3444,0,0,1-7.7421-3.21ZM40.2207,49.9453h-.7988V42.89h5.3213v7.0557ZM46.1563,34.44v5.8438a.606.606,0,0,1-.6055.6055h-4.33V33.835h4.33A.606.606,0,0,1,46.1563,34.44ZM39.2207,40.89H33.8994V33.835h5.3213ZM24.5781,33.835V40.89H19.2568V33.835ZM12.3213,40.2842V34.44a.606.606,0,0,1,.6055-.6055h4.33V40.89h-4.33A.606.606,0,0,1,12.3213,40.2842Zm0,18.11V52.5508a.606.606,0,0,1,.6055-.6055h4.33V59h-4.33A.606.606,0,0,1,12.3213,58.3945Zm6.9355-6.4492h5.3213V59H19.2568Zm7.3213,0h5.3213V59H26.5781ZM33.8994,59V51.9453h5.3213V59Zm12.2568-.6055A.606.606,0,0,1,45.5508,59h-4.33V51.9453h4.33a.606.606,0,0,1,.6055.6055ZM51.6787,49.34a.606.606,0,0,1-.6055.6055h-4.33V42.89h4.33a.606.606,0,0,1,.6055.6055Z"/></g></svg>