<svg xmlns="http://www.w3.org/2000/svg" viewBox="0 0 64 64"><title>playing game</title><g id="_27" data-name="27"><path d="M46.0547,29.2715c-.0205-.0015-.042-.002-.0635-.002H35.6221V25.9175a1,1,0,0,0-1-1H32.8989A5.3808,5.3808,0,0,0,27.6221,20.54H24.3516a1.4973,1.4973,0,1,1,0-2.9946H27.333v-2H24.3516a3.4973,3.4973,0,1,0,0,6.9946h3.2705a3.3713,3.3713,0,0,1,3.21,2.3779H29.3779a1,1,0,0,0-1,1V29.27H18A15,15,0,1,0,28.293,55.18H35.707A14.9991,14.9991,0,1,0,46.0547,29.2715Zm-15.6768-2.354h3.2441V29.27H30.3779ZM46,57.27a12.9138,12.9138,0,0,1-9.1816-3.7979,1,1,0,0,0-.7061-.292H27.8877a1,1,0,0,0-.7061.292A13,13,0,1,1,18,31.27H46a13,13,0,0,1,0,26Z"/><path d="M24.1084,41.2314H21.2217V38.3447a1,1,0,0,0-1-1H16.1455a1,1,0,0,0-1,1v2.8867H12.2588a1,1,0,0,0-1,1v4.0762a1,1,0,0,0,1,1h2.8867v2.8872a1,1,0,0,0,1,1h4.0762a1,1,0,0,0,1-1V47.3076h2.8867a1,1,0,0,0,1-1V42.2314A1,1,0,0,0,24.1084,41.2314Zm-1,4.0762H20.2217a1,1,0,0,0-1,1v2.8872H17.1455V46.3076a1,1,0,0,0-1-1H13.2588V43.2314h2.8867a1,1,0,0,0,1-1V39.3447h2.0762v2.8867a1,1,0,0,0,1,1h2.8867Z"/><path d="M45.5459,41.8579a3.2808,3.2808,0,1,0-3.2812-3.2808A3.2843,3.2843,0,0,0,45.5459,41.8579Zm0-4.5615a1.2808,1.2808,0,1,1-1.2812,1.2808A1.282,1.282,0,0,1,45.5459,37.2964Z"/><path d="M45.5459,45.6216a3.281,3.281,0,1,0,3.28,3.2808A3.2845,3.2845,0,0,0,45.5459,45.6216Zm0,4.562a1.281,1.281,0,1,1,1.28-1.2812A1.2829,1.2829,0,0,1,45.5459,50.1836Z"/><path d="M39.4922,40.7759a3.2808,3.2808,0,1,0,3.2813,3.2808A3.2845,3.2845,0,0,0,39.4922,40.7759Zm0,4.5615a1.2808,1.2808,0,1,1,1.2813-1.2808A1.2828,1.2828,0,0,1,39.4922,45.3374Z"/><path d="M51.6191,40.7759A3.2808,3.2808,0,1,0,54.9,44.0566,3.2843,3.2843,0,0,0,51.6191,40.7759Zm0,4.5615A1.2808,1.2808,0,1,1,52.9,44.0566,1.282,1.282,0,0,1,51.6191,45.3374Z"/><path d="M30.5449,12.2754H36.09a1.6348,1.6348,0,1,1,0,3.27H30.083v2H36.09a3.6348,3.6348,0,1,0,0-7.27H31.5449V5.73h-2v5.5449A1,1,0,0,0,30.5449,12.2754Z"/></g></svg>