<?xml version="1.0" encoding="utf-8"?>
<!-- Generator: Adobe Illustrator 25.2.3, SVG Export Plug-In . SVG Version: 6.00 Build 0)  -->
<svg version="1.1" id="Ebene_1" xmlns="http://www.w3.org/2000/svg" xmlns:xlink="http://www.w3.org/1999/xlink" x="0px" y="0px"
	 width="844.3px" height="318.4px" viewBox="0 0 844.3 318.4" style="enable-background:new 0 0 844.3 318.4;" xml:space="preserve"
	>
<style type="text/css">
	.st0{fill:#FFFFFF;stroke:#FFFFFF;stroke-width:4;}
	.st1{fill:#272525;}
</style>
<path class="st0" d="M772.9,56.8H93.7c-6.6,0-12,3.5-12,7.7v176L52.9,272l67.8-12h652.2c6.6,0,12-3.5,12-7.7V64.5
	C784.9,60.3,779.5,56.8,772.9,56.8z"/>
<path class="st1" d="M97,212.6l11.4-113.4h21.5c-2.8,20.5-9.2,59.8-12.5,78h0.7c7-21.8,17.3-53.4,24.8-78H161
	c-2.6,22.3-6.7,57.2-9.5,79.1h0.9c5-20.9,15.2-59.9,20.7-79.1h21.5l-38.3,113.4h-22.1c2-19,3.7-40.1,6.8-63.6h-0.7
	c-7.1,23.2-14.2,42.9-20.9,63.6H97z"/>
<path class="st1" d="M199.7,99.2H221l-9.4,44.2h13.8l9.4-44.2h21.5l-24.1,113.4h-21.5l10.6-50.6h-13.8l-10.6,50.6h-21.3L199.7,99.2z
	"/>
<path class="st1" d="M314.9,131.3l-11.1,52.4c-4.4,20.8-12,30.7-33,30.7c-20.7,0-28-12.2-23.7-33.2l11.6-55.3
	c4.3-20.6,15.2-28.3,31.6-28.3C310.2,97.5,319.6,109.3,314.9,131.3z M280.3,125.6l-12.5,59.7c-1.3,6.1-1,11.6,5.2,11.6
	c5.3,0,7.3-4.4,8.8-11.2l12.5-59.7c1.4-6.6,0.3-10.9-5.6-10.9C284.5,115.1,281.8,118.2,280.3,125.6z"/>
<path class="st1" d="M363,99.2l-24,113.4h-21.3l24.1-113.4H363z"/>
<path class="st1" d="M373.1,180.1l-1,5.3c-1.4,7.8-0.4,12,5,12c4.6,0,7-3.6,8.5-11.3c1.8-9.3,0.3-15-9.5-26.1
	c-11.6-13.2-16.1-20.6-12.8-37.9c3.2-16.8,12.4-24.6,28-24.6c24.8,0,26.5,17.2,23.8,31.6l-0.5,2.4h-20.5l0.9-4.1
	c1.4-7.5,1.2-12.8-4-12.8c-3.6,0-5.9,2.2-6.9,8c-1.4,7.9-0.1,11.6,7.6,20.7c15.2,17.7,18.6,26.8,15,44.2
	c-3.9,18.4-13.2,26.7-31.6,26.7c-21.2,0-27.8-12.4-23.8-31.6l0.6-2.6L373.1,180.1z"/>
<path class="st1" d="M443.5,99.2h23.8c24.5,0,30,13.6,24.9,37.5l-9.4,44.1c-4.3,20.1-9.9,31.8-33.3,31.8h-30.1L443.5,99.2z
	 M444.1,195.9h4.3c7.8,0,10.7-4.6,12.5-13.1l11.2-53c1.8-8.4,1.4-13.7-6.9-13.7h-4L444.1,195.9z"/>
<path class="st1" d="M557.5,131.3l-11.1,52.4c-4.4,20.8-12,30.7-33,30.7c-20.7,0-28-12.2-23.7-33.2l11.6-55.3
	c4.3-20.6,15.2-28.3,31.6-28.3C552.8,97.5,562.2,109.3,557.5,131.3z M522.9,125.6l-12.5,59.7c-1.3,6.1-1,11.6,5.2,11.6
	c5.3,0,7.3-4.4,8.8-11.2l12.5-59.7c1.4-6.6,0.3-10.9-5.6-10.9C527,115.1,524.4,118.2,522.9,125.6z"/>
<path class="st1" d="M556.3,212.6l11.4-113.4h21.5c-2.8,20.5-9.2,59.8-12.5,78h0.7c7-21.8,17.3-53.4,24.8-78h18.1
	c-2.5,22.3-6.7,57.2-9.5,79.1h0.8c5-20.9,15.2-59.9,20.7-79.1h21.5l-38.2,113.4h-22.2c2-19,3.7-40.1,6.7-63.6h-0.7
	c-7.1,23.2-14.2,42.9-20.9,63.6H556.3z"/>
<path class="st1" d="M634.9,212.6L659,99.2h24.4c0,34.2-0.5,71.6-0.7,76.6h0.5c2.2-15.7,6.1-41.5,9.4-57.5l4-19h20l-24.1,113.4
	h-24.2c0.2-29.9,0.5-73.6,0.7-77.3h-0.6c-2.1,13.4-5.9,39.5-9.6,57.4l-4.1,19.9H634.9z"/>
<path class="st1" d="M768.5,97.7l-5.9,27.8h-21.2l5.9-27.8H768.5z M760.8,134.1l-0.9,4.6c-2.4,12-5,18.2-15.5,30.2
	c-8,9.2-9.6,11.9-10.9,18.8c-1.3,6.7,0.4,8.4,4,8.4s5.6-2.9,7-9.3l1.4-6.2h19.6l-1.4,6.1c-3.2,15.2-9.7,25.8-28.7,25.8
	c-18.8,0-26.1-10.7-22.1-28.6c2.1-9.4,4.6-13.5,15.1-25.7c8-9.4,9.3-13.7,10.9-22.1l0.4-2.1L760.8,134.1z"/>
</svg>
