<svg xmlns="http://www.w3.org/2000/svg" viewBox="0 0 64 64"><title>listening to music</title><g id="_42" data-name="42"><path d="M58.5918,39.7445V34.4668h.7471A.9994.9994,0,0,0,60.335,33.38C58.95,17.4038,46.7236,5.3555,31.8955,5.3555S4.84,17.4038,3.4551,33.38a.9994.9994,0,0,0,.9961,1.0864h.957v5.2777C3.96,40.2218,3,41.1912,3,42.3765v8.1641c0,1.6851,1.918,2.9561,4.4609,2.9561a6.3378,6.3378,0,0,0,2.4609-.4672v.17a4.4091,4.4091,0,0,0,4.1133,4.3858v.059a1,1,0,0,0,1,1h5.0166a1,1,0,0,0,1-1V40.833h-2V56.6445H16.0352V36.2725h3.0166V37.667h2V35.2725a1,1,0,0,0-1-1H15.0352a1,1,0,0,0-1,1v.059a4.4091,4.4091,0,0,0-4.1133,4.3858v.17A6.3378,6.3378,0,0,0,7.4609,39.42c-.0182,0-.0346.0032-.0527.0033V34.4668h.5332a1,1,0,0,0,.9951-.9019c1.2646-12.8008,11.1357-22.4536,22.959-22.4536S53.59,20.7642,54.8535,33.5649a1,1,0,0,0,.9951.9019h.7432v4.9569c-.0181,0-.0345-.0033-.0527-.0033a6.3378,6.3378,0,0,0-2.4609.4672v-.17a4.4091,4.4091,0,0,0-4.1133-4.3858v-.059a1,1,0,0,0-1-1H43.9482a1,1,0,0,0-1,1V57.6445a1,1,0,0,0,1,1h5.0166a1,1,0,0,0,1-1v-.059A4.4091,4.4091,0,0,0,54.0781,53.2v-.17a6.3378,6.3378,0,0,0,2.4609.4672c2.543,0,4.4609-1.271,4.4609-2.9561V42.3765C61,41.1912,60.04,40.2218,58.5918,39.7445Zm-46.67-.0272A2.42,2.42,0,0,1,14.0352,37.32V55.5972A2.42,2.42,0,0,1,11.9219,53.2V39.7173Zm-2,2.6592v8.1641c0,.2773-.8623.9561-2.4609.9561C5.93,51.4966,5,50.8325,5,50.5405V42.3765c0-.292.93-.9561,2.4609-.9561S9.9219,42.0845,9.9219,42.3765ZM31.8955,9.1113c-12.5762,0-23.1133,9.9775-24.8467,23.3555H5.5605C7.2988,18.0757,18.4492,7.3555,31.8955,7.3555s24.5957,10.72,26.334,25.1113H56.7412C55.0088,19.0889,44.4717,9.1113,31.8955,9.1113ZM47.9648,56.6445H44.9482V36.2725h3.0166V56.6445ZM52.0781,53.2a2.42,2.42,0,0,1-2.1133,2.3975V37.32a2.42,2.42,0,0,1,2.1133,2.3975V53.2ZM59,50.5405c0,.292-.93.9561-2.4609.9561-1.5986,0-2.4609-.6787-2.4609-.9561V42.3765c0-.292.93-.9561,2.4609-.9561S59,42.0845,59,42.3765Z"/></g></svg>