<svg xmlns="http://www.w3.org/2000/svg" viewBox="0 0 64 64"><title>paint</title><g id="_40" data-name="40"><path d="M42.1113,6.7061H32.9189V4a.9994.9994,0,0,0-1-1H18.6377a.9994.9994,0,0,0-1,1V6.7061H8.4453a.9994.9994,0,0,0-1,1V11.5h2V8.7061h31.666V44.2334H37.9569l-.0145-.0029H12.6182l-.0145.0029H9.4453V16h-2V45.2334a.9994.9994,0,0,0,1,1h3.1729v3.63a.9994.9994,0,0,0,1,1h3.3527L7.7324,59.3018A1,1,0,0,0,8.4482,61h4.6982a.9993.9993,0,0,0,.707-.293l9.8438-9.8437H26.86L28.9375,52.94l1.4141-1.4141-.6631-.6631H31.792L39.7344,59H37.8252l-5.6777-5.6768-1.4141,1.4141,5.9707,5.97a.9993.9993,0,0,0,.707.293h4.6973a1,1,0,0,0,.7158-1.6982l-8.2377-8.4385h3.3558a.9994.9994,0,0,0,1-1v-3.63h3.1689a.9994.9994,0,0,0,1-1V7.7061A.9994.9994,0,0,0,42.1113,6.7061Zm-22.4736,0V5H30.9189V6.7061ZM12.7324,59h-1.91l7.9434-8.1367h2.1035Zm24.21-10.1367H13.6182v-2.63H36.9424Z"/><path d="M55.793,10.4492,51.78,3.5a1.04,1.04,0,0,0-1.7324,0l-4.0117,6.95a5.5656,5.5656,0,0,0-.5186,4.4395,5.6655,5.6655,0,0,0,2.33,3.0715l-.4146,11.7859a90.0756,90.0756,0,0,0-.0557,11.2256l.501,8.6758a3.0418,3.0418,0,0,0,6.0732-.0127l.4912-8.5889a89.6621,89.6621,0,0,0-.0459-11.1836L53.9808,17.96a5.6721,5.6721,0,0,0,2.3307-3.0717A5.566,5.566,0,0,0,55.793,10.4492ZM52.4463,40.9316v.001l-.4912,8.5859a1.0415,1.0415,0,0,1-1.752.7061,1.0766,1.0766,0,0,1-.3291-.7031l-.501-8.6641A88.687,88.687,0,0,1,49.43,29.85l.3887-11.0527c.0358.0068.0749.0041.1111.01a5.36,5.36,0,0,0,1.9722,0c.0349-.006.0726-.0033.1072-.01l.3906,11.1689A88.0784,88.0784,0,0,1,52.4463,40.9316Zm1.9512-26.625a3.6685,3.6685,0,0,1-1.877,2.2227l-.0117.0059a3.7118,3.7118,0,0,1-2.4236.2712,3.35,3.35,0,0,1-.7776-.2771,3.67,3.67,0,0,1-1.877-2.2217,3.59,3.59,0,0,1,.3379-2.8584L50.9141,6l3.1465,5.4482A3.5857,3.5857,0,0,1,54.3975,14.3066Z"/><path d="M34.7734,17.0439a.9989.9989,0,0,0-.9238-.6172H15.9355v2h15.5l-8.7168,8.7168a1,1,0,0,0,.707,1.707h6.3887l-5.7451,5.7441,1.4141,1.4141,7.4521-7.4512a1,1,0,0,0-.707-1.707H25.84l8.7168-8.7168A.9989.9989,0,0,0,34.7734,17.0439Z"/></g></svg>