<svg xmlns="http://www.w3.org/2000/svg" viewBox="0 0 64 64"><title>play table tennis</title><g id="_49" data-name="49"><path d="M59.5059,48.0244l-9.0137-7.7509a22.3555,22.3555,0,0,0,2.9618-9.1509,23.2517,23.2517,0,0,0-.1864-5.9976c-.0021-.0126-.0085-.0234-.011-.0358A23.8413,23.8413,0,0,0,30.2148,5.2217a22.39,22.39,0,0,0-22.316,27.006A9.4534,9.4534,0,1,0,18.5847,47.7092a23.3426,23.3426,0,0,0,12.5178,3.6443h.0068a22.53,22.53,0,0,0,11.3892-3.0748l7.7446,9.0065a4.3068,4.3068,0,0,0,3.0938,1.4922q.0806.0029.1611.0029a4.3063,4.3063,0,0,0,3.0371-1.2578l3.207-3.207a4.2925,4.2925,0,0,0-.2363-6.291ZM5,40.5a7.4713,7.4713,0,0,1,4.4336-6.8311,7.3369,7.3369,0,0,1,3.0273-.6455A7.4767,7.4767,0,0,1,19.9219,40.5q0,.3721-.0356.7379a7.3967,7.3967,0,0,1-2.1187,4.5141l0,.001A7.4665,7.4665,0,0,1,5,40.5Zm7.4609-9.4766a9.4837,9.4837,0,0,0-1.2227.0877c-.1149.0149-.2284.0351-.3424.0543a9.2768,9.2768,0,0,0-.9338.2068c-.0637.0176-.13.0238-.1935.0428A20.5048,20.5048,0,0,1,15.3994,13.18a20.2121,20.2121,0,0,1,14.7871-5.958A21.8108,21.8108,0,0,1,51.19,24.9625l-2.4261,2.4261,1.4141,1.4141,1.3406-1.3406A20.3777,20.3777,0,0,1,29.68,49.3008l17.998-17.998-1.4141-1.4141L27.1818,48.9706a21.5017,21.5017,0,0,1-7.19-2.7323A9.4878,9.4878,0,0,0,12.4609,31.0234ZM58.3281,52.9014l-3.207,3.207a2.3212,2.3212,0,0,1-1.708.67,2.2682,2.2682,0,0,1-1.6533-.7969l-7.5547-8.7852.0034-.0026a22.6406,22.6406,0,0,0,5.1974-5.1952l.01-.0131,8.7861,7.5557a2.2939,2.2939,0,0,1,.126,3.36Z"/></g></svg>