<svg xmlns="http://www.w3.org/2000/svg" viewBox="0 0 64 64"><title>play volley</title><g id="_35" data-name="35"><path d="M32,3A29,29,0,1,0,61,32,29.0334,29.0334,0,0,0,32,3ZM57.5938,23.4186l-.8477-.38A54.6615,54.6615,0,0,0,46.418,19.6055L45.98,21.5566a52.6029,52.6029,0,0,1,9.9482,3.3086l2.3745,1.0636a26.843,26.843,0,0,1-.3861,13.6237l-.5607-.5047a32.2307,32.2307,0,0,0-23.416-8.17l-1.4326.0889-2.5312-3.7432A30.1324,30.1324,0,0,1,26.7038,20.86a52.3716,52.3716,0,0,1,16.6614.1783l.3379-1.9707a54.36,54.36,0,0,0-17.4834-.16l-.157.024a29.5981,29.5981,0,0,1-1.0442-5.065l-.4177-7.827A26.97,26.97,0,0,1,57.5938,23.4186ZM21.4117,42.7311a73.5613,73.5613,0,0,1-7.7222-29.4606l-.0508-1.0414a27.0418,27.0418,0,0,1,8.9927-5.5507l.395,7.3547A32.1625,32.1625,0,0,0,28.32,28.3447l2.5074,3.707A30.03,30.03,0,0,1,21.4117,42.7311Zm-9.66-28.5631a75.538,75.538,0,0,0,7.9695,29.6579A29.916,29.916,0,0,1,16,45.7588l-5.6231,2.3929A26.9352,26.9352,0,0,1,11.7516,14.168Zm-.0583,35.5967,5.09-2.1661A32.0486,32.0486,0,0,0,32.6067,32.9643l1.4568-.09a30.096,30.096,0,0,1,12.32,1.8513,54.9524,54.9524,0,0,1-20.201,21.2668l-2.7018,1.6226A27.0717,27.0717,0,0,1,11.6933,49.7647ZM32,59a26.974,26.974,0,0,1-5.8615-.6483l1.0734-.6447A56.9355,56.9355,0,0,0,48.2435,35.4852a29.938,29.938,0,0,1,7.7751,5.049l1.2043,1.0841A27.04,27.04,0,0,1,32,59Z"/></g></svg>